<svg id="Capa_1" enable-background="new 0 0 512 512" viewBox="0 0 512 512" xmlns="http://www.w3.org/2000/svg"><g><path d="m437.02 74.98c-48.353-48.351-112.64-74.98-181.02-74.98s-132.667 26.629-181.02 74.98c-48.351 48.353-74.98 112.64-74.98 181.02s26.629 132.667 74.98 181.02c48.353 48.351 112.64 74.98 181.02 74.98s132.667-26.629 181.02-74.98c48.351-48.353 74.98-112.64 74.98-181.02s-26.629-132.667-74.98-181.02zm-10.607 351.433c-45.519 45.519-106.039 70.587-170.413 70.587s-124.894-25.068-170.413-70.587-70.587-106.039-70.587-170.413 25.068-124.894 70.587-170.413 106.039-70.587 170.413-70.587 124.894 25.068 170.413 70.587 70.587 106.039 70.587 170.413-25.068 124.894-70.587 170.413z"/><path d="m414.346 97.654c-42.295-42.296-98.531-65.59-158.346-65.59s-116.051 23.294-158.346 65.59c-42.296 42.295-65.59 98.531-65.59 158.346s23.293 116.051 65.589 158.346c42.295 42.296 98.531 65.589 158.346 65.589 50.813 0 100.573-17.487 140.114-49.24 3.229-2.593 3.745-7.314 1.151-10.544-2.593-3.229-7.313-3.745-10.544-1.151-37.42 30.051-82.623 45.936-130.72 45.936-115.208 0-208.936-93.728-208.936-208.936s93.728-208.936 208.936-208.936 208.936 93.728 208.936 208.936c0 53.372-20.118 104.173-56.646 143.047-2.837 3.019-2.689 7.765.33 10.601 3.018 2.836 7.765 2.689 10.601-.33 39.153-41.666 60.716-96.115 60.716-153.319-.001-59.814-23.295-116.05-65.591-158.345z"/><path d="m408.823 256c0 4.142 3.358 7.5 7.5 7.5h24.048c4.142 0 7.5-3.358 7.5-7.5s-3.358-7.5-7.5-7.5h-24.048c-4.142 0-7.5 3.358-7.5 7.5z"/><path d="m248.5 416.323v24.048c0 4.142 3.358 7.5 7.5 7.5s7.5-3.358 7.5-7.5v-24.048c0-4.142-3.358-7.5-7.5-7.5s-7.5 3.358-7.5 7.5z"/><path d="m398.036 346.665 13.884 8.016c1.181.682 2.471 1.006 3.743 1.006 2.592 0 5.113-1.346 6.502-3.751 2.071-3.587.842-8.174-2.745-10.245l-13.884-8.016c-3.588-2.072-8.174-.842-10.245 2.745-2.072 3.587-.843 8.174 2.745 10.245z"/><path d="m165.335 398.036-8.016 13.884c-2.071 3.587-.842 8.174 2.745 10.245 1.181.682 2.471 1.006 3.743 1.006 2.592 0 5.113-1.346 6.502-3.751l8.016-13.884c2.071-3.587.842-8.174-2.745-10.245-3.587-2.072-8.174-.843-10.245 2.745z"/><path d="m411.92 157.319-13.884 8.016c-3.587 2.071-4.816 6.658-2.745 10.245 1.389 2.406 3.91 3.751 6.502 3.751 1.272 0 2.562-.324 3.743-1.006l13.884-8.016c3.587-2.071 4.816-6.658 2.745-10.245s-6.658-4.816-10.245-2.745z"/><path d="m346.665 398.036c-2.071-3.587-6.658-4.816-10.245-2.745s-4.816 6.658-2.745 10.245l8.016 13.884c1.389 2.406 3.91 3.751 6.502 3.751 1.272 0 2.562-.324 3.743-1.006 3.587-2.071 4.816-6.658 2.745-10.245z"/><path d="m352.524 90.2c-29.235-17.056-62.612-26.071-96.524-26.071-44.102 0-87.168 15.333-121.267 43.173-3.208 2.62-3.686 7.344-1.066 10.553 2.62 3.208 7.344 3.686 10.553 1.066 5.41-4.417 11.069-8.483 16.932-12.204l4.184 7.247c1.389 2.406 3.91 3.751 6.502 3.751 1.272 0 2.562-.324 3.743-1.006 3.587-2.071 4.816-6.658 2.745-10.245l-4.179-7.238c22.915-11.944 48.342-18.824 74.353-19.936v16.387c0 4.142 3.358 7.5 7.5 7.5s7.5-3.358 7.5-7.5v-16.369c26.173 1.114 51.81 8.019 74.938 20.223l-77.107 133.553c-1.714-.399-3.497-.616-5.331-.616-12.976 0-23.532 10.557-23.532 23.532 0 1.834.218 3.617.616 5.331l-133.553 77.107c-12.204-23.127-19.11-48.765-20.223-74.938h16.369c4.142 0 7.5-3.358 7.5-7.5s-3.358-7.5-7.5-7.5h-16.384c1.105-26.107 7.965-51.472 19.918-74.362l7.254 4.188c1.181.682 2.471 1.006 3.743 1.006 2.592 0 5.113-1.346 6.502-3.751 2.071-3.587.842-8.174-2.745-10.245l-7.255-4.189c4.829-7.596 10.251-14.857 16.252-21.7 2.731-3.115 2.42-7.853-.694-10.584-3.115-2.73-7.854-2.42-10.584.694-30.667 34.973-47.555 79.878-47.555 126.443 0 33.912 9.015 67.29 26.071 96.524 1.394 2.389 3.904 3.722 6.485 3.722 1.272 0 2.562-.324 3.743-1.006l140.547-81.145c4.079 3.393 9.317 5.437 15.025 5.437 12.976 0 23.532-10.557 23.532-23.532 0-5.708-2.044-10.946-5.437-15.025l81.145-140.547c2.065-3.576.851-8.148-2.716-10.228zm-96.524 174.332c-4.705 0-8.532-3.828-8.532-8.532s3.828-8.532 8.532-8.532 8.532 3.828 8.532 8.532-3.827 8.532-8.532 8.532z"/></g><g/><g/><g/><g/><g/><g/><g/><g/><g/><g/><g/><g/><g/><g/><g/></svg>