<svg fill="none" height="512" viewBox="0 0 24 24" width="512" xmlns="http://www.w3.org/2000/svg"><g clip-rule="evenodd" fill="rgb(0,0,0)" fill-rule="evenodd"><path d="m9.5 5c0 1.10455-.89545 2-2 2s-2-.89545-2-2c0-1.10457.89545-2 2-2s2 .89543 2 2zm-2 9c1.10455 0 2-.8954 2-2 0-1.1045-.89545-2-2-2s-2 .8955-2 2c0 1.1046.89545 2 2 2zm0 7c1.10455 0 2-.8955 2-2 0-1.1046-.89545-2-2-2s-2 .8954-2 2c0 1.1045.89545 2 2 2z"/><path d="m18.5 5c0 1.10455-.8954 2-2 2s-2-.89545-2-2c0-1.10457.8954-2 2-2s2 .89543 2 2zm-2 9c1.1046 0 2-.8954 2-2 0-1.1045-.8954-2-2-2s-2 .8955-2 2c0 1.1046.8954 2 2 2zm0 7c1.1046 0 2-.8955 2-2 0-1.1046-.8954-2-2-2s-2 .8954-2 2c0 1.1045.8954 2 2 2z"/></g></svg>