<svg enable-background="new 0 0 24 24" height="512" viewBox="0 0 24 24" width="512" xmlns="http://www.w3.org/2000/svg" xmlns:xlink="http://www.w3.org/1999/xlink"><linearGradient id="lg1"><stop offset="0" stop-color="#ffb067"/><stop offset="1" stop-color="#ffd7b3"/></linearGradient><linearGradient id="SVGID_1_" gradientUnits="userSpaceOnUse" x1="11.313" x2="12.688" xlink:href="#lg1" y1="20.937" y2="20.937"/><linearGradient id="SVGID_00000065759507711299428700000005723263102120847535_" gradientUnits="userSpaceOnUse" x1="5.905" x2="8.471" xlink:href="#lg1" y1="20.335" y2="20.335"/><linearGradient id="SVGID_00000180361206579170372860000008847199355326287773_" gradientUnits="userSpaceOnUse" x1="2.131" x2="5.199" xlink:href="#lg1" y1="16.812" y2="16.812"/><linearGradient id="SVGID_00000183936709976361619270000000536784320522613668_" gradientUnits="userSpaceOnUse" x1="1" x2="5.125" xlink:href="#lg1" y1="12" y2="12"/><linearGradient id="SVGID_00000055682933497639800640000002397262356209018242_" gradientUnits="userSpaceOnUse" x1="2.131" x2="5.2" xlink:href="#lg1" y1="7.188" y2="7.188"/><linearGradient id="SVGID_00000174573909670618553270000009072301211198558878_" gradientUnits="userSpaceOnUse" x1="5.905" x2="8.471" xlink:href="#lg1" y1="3.665" y2="3.665"/><linearGradient id="SVGID_00000169541640318368268330000003132107059660038786_" gradientUnits="userSpaceOnUse" x1="11.312" x2="12.687" xlink:href="#lg1" y1="3.063" y2="3.063"/><linearGradient id="SVGID_00000001642852536582229320000013385103968442758312_" gradientUnits="userSpaceOnUse" x1="15.529" x2="18.095" xlink:href="#lg1" y1="3.665" y2="3.665"/><linearGradient id="SVGID_00000036944393818700426350000017599253911189728135_" gradientUnits="userSpaceOnUse" x1="18.801" x2="21.87" xlink:href="#lg1" y1="7.188" y2="7.188"/><linearGradient id="SVGID_00000033336615157538625420000014638551417196675486_" gradientUnits="userSpaceOnUse" x1="18.875" x2="23" xlink:href="#lg1" y1="11.999" y2="11.999"/><linearGradient id="SVGID_00000138532502190225978800000009503610481080675487_" gradientUnits="userSpaceOnUse" x1="18.8" x2="21.87" xlink:href="#lg1" y1="16.812" y2="16.812"/><linearGradient id="SVGID_00000047744245422878875140000005010160976502607241_" gradientUnits="userSpaceOnUse" x1="15.529" x2="18.095" xlink:href="#lg1" y1="20.335" y2="20.335"/><linearGradient id="SVGID_00000000212111814573367460000001672094532996124299_" gradientUnits="userSpaceOnUse" x1="7.389" x2="12.688" y1="12.243" y2="12.243"><stop offset="0" stop-color="#ffcf1b"/><stop offset="1" stop-color="#ff881b"/></linearGradient><linearGradient id="lg2"><stop offset="0" stop-color="#ffcda5"/><stop offset="1" stop-color="#ee4d5f"/></linearGradient><linearGradient id="SVGID_00000030466411267593025330000000656569491769343633_" gradientUnits="userSpaceOnUse" x1="10.625" x2="13.375" xlink:href="#lg2" y1="19.562" y2="22.312"/><linearGradient id="SVGID_00000009591717484877904190000010374190835413119116_" gradientUnits="userSpaceOnUse" x1="6.466" x2="7.909" xlink:href="#lg2" y1="19.613" y2="21.056"/><linearGradient id="SVGID_00000023972708441621383420000013511047068102528402_" gradientUnits="userSpaceOnUse" x1="2.944" x2="4.386" xlink:href="#lg2" y1="16.091" y2="17.533"/><linearGradient id="SVGID_00000125592198690582425600000017108772486270253983_" gradientUnits="userSpaceOnUse" x1="1.688" x2="4.438" xlink:href="#lg2" y1="10.625" y2="13.375"/><linearGradient id="SVGID_00000044135424546214897010000003052631971255198084_" gradientUnits="userSpaceOnUse" x1="2.6" x2="4.73" xlink:href="#lg2" y1="6.123" y2="8.253"/><linearGradient id="SVGID_00000083067310231844341840000015734408933845446017_" gradientUnits="userSpaceOnUse" x1="6.123" x2="8.253" xlink:href="#lg2" y1="2.6" y2="4.73"/><linearGradient id="SVGID_00000035498652764647417240000007888043981264646021_" gradientUnits="userSpaceOnUse" x1="10.624" x2="13.374" xlink:href="#lg2" y1="1.688" y2="4.438"/><linearGradient id="SVGID_00000133498224678442102580000015682082921272232113_" gradientUnits="userSpaceOnUse" x1="16.091" x2="17.534" xlink:href="#lg2" y1="2.944" y2="4.387"/><linearGradient id="SVGID_00000090268000474004945140000016171257955339614090_" gradientUnits="userSpaceOnUse" x1="19.614" x2="21.056" xlink:href="#lg2" y1="6.467" y2="7.909"/><linearGradient id="SVGID_00000112595805263902561040000000176556385166332813_" gradientUnits="userSpaceOnUse" x1="19.562" x2="22.312" xlink:href="#lg2" y1="10.624" y2="13.374"/><linearGradient id="SVGID_00000024701469114130279760000016701259091375467922_" gradientUnits="userSpaceOnUse" x1="19.27" x2="21.4" xlink:href="#lg2" y1="15.747" y2="17.877"/><linearGradient id="SVGID_00000145742629474434853760000009183073194321743763_" gradientUnits="userSpaceOnUse" x1="15.747" x2="17.877" xlink:href="#lg2" y1="19.27" y2="21.4"/><linearGradient id="SVGID_00000028323138001515054650000012305014934467817614_" gradientUnits="userSpaceOnUse" x1="8.735" x2="11.627" xlink:href="#lg2" y1="10.453" y2="13.345"/><g id="Blue" display="none"><g display="inline"><g id="_x3C_Radial_Repeat_x3E__00000139259122715638233460000014005675822302973840_"><g><path d="m11.313 18.875h1.375v4.125h-1.375z" fill="#008eca"/></g></g><g id="_x3C_Radial_Repeat_x3E__00000162346273290951731420000006778244374388589469_"><g><path d="m5.813 19.647h2.75v1.375h-2.75z" fill="#008eca" transform="matrix(.5 -.866 .866 .5 -14.017 16.394)"/></g></g><g id="_x3C_Radial_Repeat_x3E__00000147201881849759226170000015182665749832762287_"><g><path d="m2.29 16.125h2.75v1.375h-2.75z" fill="#008eca" transform="matrix(.866 -.5 .5 .866 -7.914 4.084)"/></g></g><g id="_x3C_Radial_Repeat_x3E__00000145032239507168351020000014508372443533217471_"><g><path d="m1 11.313h4.125v1.375h-4.125z" fill="#008eca"/></g></g><g id="_x3C_Radial_Repeat_x3E__00000037656958604690805410000004676519593966816912_"><g><path d="m2.978 5.813h1.375v2.75h-1.375z" fill="#008eca" transform="matrix(.5 -.866 .866 .5 -4.392 6.769)"/></g></g><g id="_x3C_Radial_Repeat_x3E__00000083768668008649150260000013833446419137529228_"><g><path d="m6.5 2.289h1.375v2.75h-1.375z" fill="#008eca" transform="matrix(.866 -.5 .5 .866 -.869 4.084)"/></g></g><g id="_x3C_Radial_Repeat_x3E__00000092437073689797572550000008018636773598268808_"><g><path d="m11.312 1h1.375v4.125h-1.375z" fill="#008eca"/></g></g><g id="_x3C_Radial_Repeat_x3E__00000170964471743290909450000016473814209441105545_"><g><path d="m15.437 2.978h2.75v1.375h-2.75z" fill="#008eca" transform="matrix(.5 -.866 .866 .5 5.233 16.394)"/></g></g><g id="_x3C_Radial_Repeat_x3E__00000138554706862447103320000006640502915156972214_"><g><path d="m18.96 6.5h2.75v1.375h-2.75z" fill="#008eca" transform="matrix(.866 -.5 .5 .866 -.87 11.129)"/></g></g><g id="_x3C_Radial_Repeat_x3E__00000011717577407123616200000009500579452281935503_"><g><path d="m18.875 11.312h4.125v1.375h-4.125z" fill="#008eca"/></g></g><g id="_x3C_Radial_Repeat_x3E__00000158005660714152534610000008180048032538045118_"><g><path d="m19.647 15.437h1.375v2.75h-1.375z" fill="#008eca" transform="matrix(.5 -.866 .866 .5 -4.392 26.019)"/></g></g><g id="_x3C_Radial_Repeat_x3E__00000144332313609679999600000017734032382077238963_"><g><path d="m16.125 18.96h1.375v2.75h-1.375z" fill="#008eca" transform="matrix(.866 -.5 .5 .866 -7.915 11.131)"/></g></g></g><g display="inline"><path d="m8.361 16.611-.972-.972 3.924-3.924v-3.84h1.374v4.41z" fill="#00ffef"/></g></g><g id="Flat_Gradient" display="none"><g display="inline"><g id="_x3C_Radial_Repeat_x3E__00000107559312386787181930000010632851001349984188_"><g><path d="m11.313 18.875h1.375v4.125h-1.375z" fill="url(#SVGID_1_)"/></g></g><g id="_x3C_Radial_Repeat_x3E__00000004546295059795797460000016685808906916653961_"><g><path d="m7.096 21.869-1.191-.687 1.375-2.382 1.191.688z" fill="url(#SVGID_00000065759507711299428700000005723263102120847535_)"/></g></g><g id="_x3C_Radial_Repeat_x3E__00000071550205946029009720000016149004458244843946_"><g><path d="m2.818 18.095-.687-1.191 2.381-1.375.687 1.191z" fill="url(#SVGID_00000180361206579170372860000008847199355326287773_)"/></g></g><g id="_x3C_Radial_Repeat_x3E__00000118358245836045261710000000999242658223071656_"><g><path d="m1 11.313h4.125v1.375h-4.125z" fill="url(#SVGID_00000183936709976361619270000000536784320522613668_)"/></g></g><g id="_x3C_Radial_Repeat_x3E__00000081641261060552710660000013343425804501152926_"><g><path d="m4.512 8.471-2.381-1.375.687-1.191 2.382 1.375z" fill="url(#SVGID_00000055682933497639800640000002397262356209018242_)"/></g></g><g id="_x3C_Radial_Repeat_x3E__00000160185532323878751750000004881218361105785773_"><g><path d="m7.28 5.199-1.375-2.382 1.191-.687 1.375 2.382z" fill="url(#SVGID_00000174573909670618553270000009072301211198558878_)"/></g></g><g id="_x3C_Radial_Repeat_x3E__00000170967190713114216570000007488699190160717995_"><g><path d="m11.312 1h1.375v4.125h-1.375z" fill="url(#SVGID_00000169541640318368268330000003132107059660038786_)"/></g></g><g id="_x3C_Radial_Repeat_x3E__00000065787796701297598990000018388574797131669162_"><g><path d="m16.72 5.2-1.191-.688 1.375-2.381 1.191.687z" fill="url(#SVGID_00000001642852536582229320000013385103968442758312_)"/></g></g><g id="_x3C_Radial_Repeat_x3E__00000176723930715856104160000016805236153625215620_"><g><path d="m19.488 8.471-.687-1.191 2.381-1.375.687 1.191z" fill="url(#SVGID_00000036944393818700426350000017599253911189728135_)"/></g></g><g id="_x3C_Radial_Repeat_x3E__00000054256297346541962110000007957924849696929687_"><g><path d="m18.875 11.312h4.125v1.375h-4.125z" fill="url(#SVGID_00000033336615157538625420000014638551417196675486_)"/></g></g><g id="_x3C_Radial_Repeat_x3E__00000122717639352375307090000008452003294327017649_"><g><path d="m21.182 18.095-2.382-1.375.688-1.191 2.381 1.375z" fill="url(#SVGID_00000138532502190225978800000009503610481080675487_)"/></g></g><g id="_x3C_Radial_Repeat_x3E__00000129170386975529982140000017864566078106090416_"><g><path d="m16.904 21.869-1.375-2.381 1.191-.687 1.375 2.381z" fill="url(#SVGID_00000047744245422878875140000005010160976502607241_)"/></g></g></g><g display="inline"><path d="m8.361 16.611-.972-.972 3.924-3.924v-3.84h1.374v4.41z" fill="url(#SVGID_00000000212111814573367460000001672094532996124299_)"/></g></g><g id="Lineal_Flat" display="none"><g display="inline"><g id="_x3C_Radial_Repeat_x3E__00000148651219225360783640000004078064074695108012_"><g><path d="m11.313 18.875h1.375v4.125h-1.375z" fill="#ffd7b3"/></g></g><g id="_x3C_Radial_Repeat_x3E__00000011017427837648490070000005218928094948749712_"><g><path d="m5.813 19.647h2.75v1.375h-2.75z" fill="#ffd7b3" transform="matrix(.5 -.866 .866 .5 -14.017 16.394)"/></g></g><g id="_x3C_Radial_Repeat_x3E__00000161594933877039485040000006326835186065205940_"><g><path d="m2.29 16.125h2.75v1.375h-2.75z" fill="#ffd7b3" transform="matrix(.866 -.5 .5 .866 -7.914 4.084)"/></g></g><g id="_x3C_Radial_Repeat_x3E__00000108306580544681485750000000670620790368171669_"><g><path d="m1 11.313h4.125v1.375h-4.125z" fill="#ffd7b3"/></g></g><g id="_x3C_Radial_Repeat_x3E__00000042014986887778040050000010198828272052981414_"><g><path d="m2.978 5.813h1.375v2.75h-1.375z" fill="#ffd7b3" transform="matrix(.5 -.866 .866 .5 -4.392 6.769)"/></g></g><g id="_x3C_Radial_Repeat_x3E__00000018941190187628861050000014002423189104452261_"><g><path d="m6.5 2.289h1.375v2.75h-1.375z" fill="#ffd7b3" transform="matrix(.866 -.5 .5 .866 -.869 4.084)"/></g></g><g id="_x3C_Radial_Repeat_x3E__00000015335482276589408450000002684036497176583845_"><g><path d="m11.312 1h1.375v4.125h-1.375z" fill="#ffd7b3"/></g></g><g id="_x3C_Radial_Repeat_x3E__00000096039315026384275090000012606450641178650292_"><g><path d="m15.437 2.978h2.75v1.375h-2.75z" fill="#ffd7b3" transform="matrix(.5 -.866 .866 .5 5.233 16.394)"/></g></g><g id="_x3C_Radial_Repeat_x3E__00000135676001809066835780000007592448326358826634_"><g><path d="m18.96 6.5h2.75v1.375h-2.75z" fill="#ffd7b3" transform="matrix(.866 -.5 .5 .866 -.87 11.129)"/></g></g><g id="_x3C_Radial_Repeat_x3E__00000024720493284583992390000008479742681197174703_"><g><path d="m18.875 11.312h4.125v1.375h-4.125z" fill="#ffd7b3"/></g></g><g id="_x3C_Radial_Repeat_x3E__00000132788525152929341080000001509595930876347019_"><g><path d="m19.647 15.437h1.375v2.75h-1.375z" fill="#ffd7b3" transform="matrix(.5 -.866 .866 .5 -4.392 26.019)"/></g></g><g id="_x3C_Radial_Repeat_x3E__00000135680543620395038280000000060850900892916156_"><g><path d="m16.125 18.96h1.375v2.75h-1.375z" fill="#ffd7b3" transform="matrix(.866 -.5 .5 .866 -7.915 11.131)"/></g></g></g><g display="inline"><path d="m8.361 16.611-.972-.972 3.924-3.924v-3.84h1.374v4.41z" fill="#ad9cff"/></g><g><g display="inline"><g id="_x3C_Radial_Repeat_x3E__00000038370696507931047720000005031316370430570406_"><g><path d="m11.5 17h1v3h-1z"/></g></g><g id="_x3C_Radial_Repeat_x3E__00000073701972180374874810000001139012178481005724_"><g><path d="m7.5 17.562h2v1h-2z" transform="matrix(.5 -.866 .866 .5 -11.392 16.394)"/></g></g><g id="_x3C_Radial_Repeat_x3E__00000042736720151460720240000006151313846715887524_"><g><path d="m4.938 15h2v1h-2z" transform="matrix(.866 -.5 .5 .866 -6.954 5.044)"/></g></g><g id="_x3C_Radial_Repeat_x3E__00000090262189508472537020000002475047300233861505_"><g><path d="m4 11.5h3v1h-3z"/></g></g><g id="_x3C_Radial_Repeat_x3E__00000103236776174797100050000013160834491947625130_"><g><path d="m5.438 7.5h1v2h-1z" transform="matrix(.5 -.866 .866 .5 -4.392 9.393)"/></g></g><g id="_x3C_Radial_Repeat_x3E__00000080206998702997065810000004762284545924561342_"><g><path d="m8 4.937h1v2h-1z" transform="matrix(.866 -.5 .5 .866 -1.83 5.045)"/></g></g><g id="_x3C_Radial_Repeat_x3E__00000075161464535514653220000017149727319924610711_"><g><path d="m11.5 4h1v3h-1z"/></g></g><g id="_x3C_Radial_Repeat_x3E__00000134229714188950224690000011208452223129773479_"><g><path d="m14.5 5.438h2v1h-2z" transform="matrix(.5 -.866 .866 .5 2.609 16.394)"/></g></g><g id="_x3C_Radial_Repeat_x3E__00000155828842849718726880000014028224289158882231_"><g><path d="m17.062 8h2v1h-2z" transform="matrix(.866 -.5 .5 .866 -1.83 10.168)"/></g></g><g id="_x3C_Radial_Repeat_x3E__00000021834714794466021140000002879635316917180300_"><g><path d="m17 11.5h3v1h-3z"/></g></g><g id="_x3C_Radial_Repeat_x3E__00000098180159628831770850000005943846109248880787_"><g><path d="m17.562 14.5h1v2h-1z" transform="matrix(.5 -.866 .866 .5 -4.392 23.394)"/></g></g><g id="_x3C_Radial_Repeat_x3E__00000081646907353375485270000013461841807988765575_"><g><path d="m15 17.062h1v2h-1z" transform="matrix(.866 -.5 .5 .866 -6.955 10.171)"/></g></g></g><g display="inline"><path d="m9.354 15.354-.708-.708 2.854-2.853v-2.793h1v3.207z"/></g></g></g><g id="Lineal_Gradient" display="none"><g display="inline"><g id="_x3C_Radial_Repeat_x3E__00000171698264433724076540000015973833676945149629_"><g><path d="m11.313 18.875h1.375v4.125h-1.375z" fill="url(#SVGID_00000030466411267593025330000000656569491769343633_)"/></g></g><g id="_x3C_Radial_Repeat_x3E__00000111870581275372288010000011068501778634838187_"><g><path d="m7.096 21.869-1.191-.687 1.375-2.382 1.191.688z" fill="url(#SVGID_00000009591717484877904190000010374190835413119116_)"/></g></g><g id="_x3C_Radial_Repeat_x3E__00000114773841433707510480000008165799416998624662_"><g><path d="m2.818 18.095-.687-1.191 2.381-1.375.687 1.191z" fill="url(#SVGID_00000023972708441621383420000013511047068102528402_)"/></g></g><g id="_x3C_Radial_Repeat_x3E__00000161613265053693903530000000662649009650207407_"><g><path d="m1 11.313h4.125v1.375h-4.125z" fill="url(#SVGID_00000125592198690582425600000017108772486270253983_)"/></g></g><g id="_x3C_Radial_Repeat_x3E__00000168800923507244647100000011346105009309285270_"><g><path d="m4.512 8.471-2.381-1.375.687-1.191 2.382 1.375z" fill="url(#SVGID_00000044135424546214897010000003052631971255198084_)"/></g></g><g id="_x3C_Radial_Repeat_x3E__00000168114102615040732680000018233462897275699892_"><g><path d="m7.28 5.199-1.375-2.382 1.191-.687 1.375 2.382z" fill="url(#SVGID_00000083067310231844341840000015734408933845446017_)"/></g></g><g id="_x3C_Radial_Repeat_x3E__00000001664679851323965750000005102046911780451475_"><g><path d="m11.312 1h1.375v4.125h-1.375z" fill="url(#SVGID_00000035498652764647417240000007888043981264646021_)"/></g></g><g id="_x3C_Radial_Repeat_x3E__00000138549550881309467180000011584331070456790194_"><g><path d="m16.72 5.2-1.191-.688 1.375-2.381 1.191.687z" fill="url(#SVGID_00000133498224678442102580000015682082921272232113_)"/></g></g><g id="_x3C_Radial_Repeat_x3E__00000147216863723064850580000001786556127862449578_"><g><path d="m19.488 8.471-.687-1.191 2.381-1.375.687 1.191z" fill="url(#SVGID_00000090268000474004945140000016171257955339614090_)"/></g></g><g id="_x3C_Radial_Repeat_x3E__00000167369732186682182490000015855346365024295315_"><g><path d="m18.875 11.312h4.125v1.375h-4.125z" fill="url(#SVGID_00000112595805263902561040000000176556385166332813_)"/></g></g><g id="_x3C_Radial_Repeat_x3E__00000059291485595574708300000015608464983646136199_"><g><path d="m21.182 18.095-2.382-1.375.688-1.191 2.381 1.375z" fill="url(#SVGID_00000024701469114130279760000016701259091375467922_)"/></g></g><g id="_x3C_Radial_Repeat_x3E__00000093139632104496423500000009612957042577451664_"><g><path d="m16.904 21.869-1.375-2.381 1.191-.687 1.375 2.381z" fill="url(#SVGID_00000145742629474434853760000009183073194321743763_)"/></g></g></g><g display="inline"><path d="m8.361 16.611-.972-.972 3.924-3.924v-3.84h1.374v4.41z" fill="url(#SVGID_00000028323138001515054650000012305014934467817614_)"/></g></g><g id="Lineal"><g><g id="_x3C_Radial_Repeat_x3E__00000063632873028700498390000008307921840353337533_"><g><path d="m11.313 18.875h1.375v4.125h-1.375z"/></g></g><g id="_x3C_Radial_Repeat_x3E__00000101794239635325576500000000469403768209780621_"><g><path d="m5.813 19.647h2.75v1.375h-2.75z" transform="matrix(.5 -.866 .866 .5 -14.017 16.394)"/></g></g><g id="_x3C_Radial_Repeat_x3E__00000178913071665120803870000018432285087376568206_"><g><path d="m2.29 16.125h2.75v1.375h-2.75z" transform="matrix(.866 -.5 .5 .866 -7.914 4.084)"/></g></g><g id="_x3C_Radial_Repeat_x3E__00000181080812601169177610000016319245313645375891_"><g><path d="m1 11.313h4.125v1.375h-4.125z"/></g></g><g id="_x3C_Radial_Repeat_x3E__00000112631536567465693480000003070429130701194148_"><g><path d="m2.978 5.813h1.375v2.75h-1.375z" transform="matrix(.5 -.866 .866 .5 -4.392 6.769)"/></g></g><g id="_x3C_Radial_Repeat_x3E__00000065056285983352707440000015059710472498379161_"><g><path d="m6.5 2.289h1.375v2.75h-1.375z" transform="matrix(.866 -.5 .5 .866 -.869 4.084)"/></g></g><g id="_x3C_Radial_Repeat_x3E__00000175313406428569051600000007881319978184511663_"><g><path d="m11.312 1h1.375v4.125h-1.375z"/></g></g><g id="_x3C_Radial_Repeat_x3E__00000016794889225913366740000017986331233505701788_"><g><path d="m15.437 2.978h2.75v1.375h-2.75z" transform="matrix(.5 -.866 .866 .5 5.233 16.394)"/></g></g><g id="_x3C_Radial_Repeat_x3E__00000147902015796145230630000013337665075227650707_"><g><path d="m18.96 6.5h2.75v1.375h-2.75z" transform="matrix(.866 -.5 .5 .866 -.87 11.129)"/></g></g><g id="_x3C_Radial_Repeat_x3E__00000134214058227800426740000009216113590527564469_"><g><path d="m18.875 11.312h4.125v1.375h-4.125z"/></g></g><g id="_x3C_Radial_Repeat_x3E__00000100342905551862128690000016809347986635826080_"><g><path d="m19.647 15.437h1.375v2.75h-1.375z" transform="matrix(.5 -.866 .866 .5 -4.392 26.019)"/></g></g><g id="_x3C_Radial_Repeat_x3E__00000056425142747896477590000010692645419477097617_"><g><path d="m16.125 18.96h1.375v2.75h-1.375z" transform="matrix(.866 -.5 .5 .866 -7.915 11.131)"/></g></g></g><g><path d="m8.361 16.611-.972-.972 3.924-3.924v-3.84h1.374v4.41z"/></g></g></svg>