<svg xmlns="http://www.w3.org/2000/svg" xmlns:xlink="http://www.w3.org/1999/xlink" width="2000" zoomAndPan="magnify" viewBox="0 0 1500 1499.999933" height="2000" preserveAspectRatio="xMidYMid meet" version="1.0"><defs><g/><clipPath id="cd468879ac"><rect x="0" width="1429" y="0" height="1489"/></clipPath><clipPath id="6a04dd8cd1"><rect x="0" width="175" y="0" height="109"/></clipPath><clipPath id="ecc0cead4c"><rect x="0" width="559" y="0" height="110"/></clipPath></defs><g transform="matrix(1, 0, 0, 1, 15, 11)"><g clip-path="url(#cd468879ac)"><g fill="#ff5c0e" fill-opacity="1"><g transform="translate(0.935393, 1442.376759)"><g><path d="M 58.109375 0 L 54.234375 -1408.03125 L 732.09375 -894.78125 L 1409.96875 -1408.03125 L 1413.84375 0 Z M 58.109375 0 "/></g></g></g></g></g><g transform="matrix(1, 0, 0, 1, 230, 1134)"><g clip-path="url(#6a04dd8cd1)"><g fill="#ffe7dc" fill-opacity="1"><g transform="translate(1.118549, 87.539371)"><g><path d="M 25.1875 0 L 6.1875 0 L 6.1875 -66.5 L 25.28125 -66.5 C 36.4375 -66.5 44.976562 -63.625 50.90625 -57.875 C 56.832031 -52.125 59.796875 -43.898438 59.796875 -33.203125 C 59.796875 -22.566406 56.832031 -14.375 50.90625 -8.625 C 44.976562 -2.875 36.40625 0 25.1875 0 Z M 17.25 -56.5625 L 17.25 -9.9375 L 25.09375 -9.9375 C 29.632812 -9.9375 33.675781 -10.617188 37.21875 -11.984375 C 40.757812 -13.347656 43.5625 -15.726562 45.625 -19.125 C 47.6875 -22.53125 48.71875 -27.222656 48.71875 -33.203125 C 48.71875 -38.785156 47.726562 -43.289062 45.75 -46.71875 C 43.78125 -50.144531 41.019531 -52.640625 37.46875 -54.203125 C 33.925781 -55.773438 29.800781 -56.5625 25.09375 -56.5625 Z M 17.25 -56.5625 "/></g></g></g><g fill="#ffe7dc" fill-opacity="1"><g transform="translate(60.728805, 87.539371)"><g><path d="M 12.28125 0 L 0.78125 0 L 24.578125 -66.5 L 36.78125 -66.5 L 60.578125 0 L 49.0625 0 L 44.1875 -14.5625 L 17.25 -14.5625 Z M 30.671875 -54.640625 L 20.484375 -24.234375 L 40.875 -24.234375 Z M 30.671875 -54.640625 "/></g></g></g><g fill="#ffe7dc" fill-opacity="1"><g transform="translate(112.495365, 87.539371)"><g><path d="M 36 0 L 24.40625 0 L 24.40625 -25.796875 L -0.09375 -66.5 L 12.8125 -66.5 L 30.0625 -36.609375 L 47.5 -66.5 L 60.3125 -66.5 L 36 -25.796875 Z M 36 0 "/></g></g></g></g></g><g transform="matrix(1, 0, 0, 1, 230, 1040)"><g clip-path="url(#ecc0cead4c)"><g fill="#ffe7dc" fill-opacity="1"><g transform="translate(1.118549, 87.654145)"><g><path d="M 17.25 0 L 6.1875 0 L 6.1875 -66.5 L 33.640625 -66.5 C 37.828125 -66.5 41.488281 -65.816406 44.625 -64.453125 C 47.757812 -63.085938 50.210938 -60.976562 51.984375 -58.125 C 53.753906 -55.28125 54.640625 -51.59375 54.640625 -47.0625 C 54.640625 -42.882812 53.769531 -39.3125 52.03125 -36.34375 C 50.289062 -33.382812 47.835938 -31.101562 44.671875 -29.5 C 41.503906 -27.90625 37.828125 -27.109375 33.640625 -27.109375 L 17.25 -27.109375 Z M 17.25 -56.5625 L 17.25 -36.78125 L 32.15625 -36.78125 C 35.9375 -36.78125 38.8125 -37.632812 40.78125 -39.34375 C 42.757812 -41.0625 43.75 -43.519531 43.75 -46.71875 C 43.75 -49.914062 42.742188 -52.351562 40.734375 -54.03125 C 38.734375 -55.71875 35.875 -56.5625 32.15625 -56.5625 Z M 17.25 -56.5625 "/></g></g></g><g fill="#ffe7dc" fill-opacity="1"><g transform="translate(56.632827, 87.654145)"><g><path d="M 43.75 -29.015625 L 56.046875 0 L 44.09375 0 L 33.125 -27.109375 L 17.25 -27.109375 L 17.25 0 L 6.1875 0 L 6.1875 -66.5 L 33.640625 -66.5 C 37.828125 -66.5 41.488281 -65.816406 44.625 -64.453125 C 47.757812 -63.085938 50.210938 -60.976562 51.984375 -58.125 C 53.753906 -55.28125 54.640625 -51.59375 54.640625 -47.0625 C 54.640625 -42.644531 53.679688 -38.910156 51.765625 -35.859375 C 49.847656 -32.816406 47.175781 -30.535156 43.75 -29.015625 Z M 17.25 -56.5625 L 17.25 -36.78125 L 32.15625 -36.78125 C 35.9375 -36.78125 38.8125 -37.632812 40.78125 -39.34375 C 42.757812 -41.0625 43.75 -43.519531 43.75 -46.71875 C 43.75 -49.914062 42.742188 -52.351562 40.734375 -54.03125 C 38.734375 -55.71875 35.875 -56.5625 32.15625 -56.5625 Z M 17.25 -56.5625 "/></g></g></g><g fill="#ffe7dc" fill-opacity="1"><g transform="translate(114.064403, 87.654145)"><g><path d="M 35.5625 1.140625 C 30.15625 1.140625 25.445312 0.210938 21.4375 -1.640625 C 17.425781 -3.503906 14.113281 -6.035156 11.5 -9.234375 C 8.882812 -12.429688 6.9375 -16.09375 5.65625 -20.21875 C 4.382812 -24.34375 3.75 -28.703125 3.75 -33.296875 C 3.75 -37.878906 4.382812 -42.21875 5.65625 -46.3125 C 6.9375 -50.414062 8.882812 -54.066406 11.5 -57.265625 C 14.113281 -60.460938 17.425781 -62.972656 21.4375 -64.796875 C 25.445312 -66.628906 30.15625 -67.546875 35.5625 -67.546875 C 40.96875 -67.546875 45.660156 -66.628906 49.640625 -64.796875 C 53.617188 -62.972656 56.925781 -60.460938 59.5625 -57.265625 C 62.207031 -54.066406 64.171875 -50.414062 65.453125 -46.3125 C 66.734375 -42.21875 67.375 -37.878906 67.375 -33.296875 C 67.375 -28.703125 66.734375 -24.34375 65.453125 -20.21875 C 64.171875 -16.09375 62.207031 -12.429688 59.5625 -9.234375 C 56.925781 -6.035156 53.617188 -3.503906 49.640625 -1.640625 C 45.660156 0.210938 40.96875 1.140625 35.5625 1.140625 Z M 35.5625 -8.796875 C 39.976562 -8.796875 43.695312 -9.84375 46.71875 -11.9375 C 49.738281 -14.03125 52.03125 -16.921875 53.59375 -20.609375 C 55.164062 -24.296875 55.953125 -28.523438 55.953125 -33.296875 C 55.953125 -38.054688 55.164062 -42.265625 53.59375 -45.921875 C 52.03125 -49.585938 49.738281 -52.46875 46.71875 -54.5625 C 43.695312 -56.65625 39.976562 -57.703125 35.5625 -57.703125 C 31.195312 -57.703125 27.488281 -56.65625 24.4375 -54.5625 C 21.394531 -52.46875 19.085938 -49.585938 17.515625 -45.921875 C 15.953125 -42.265625 15.171875 -38.054688 15.171875 -33.296875 C 15.171875 -28.523438 15.953125 -24.296875 17.515625 -20.609375 C 19.085938 -16.921875 21.394531 -14.03125 24.4375 -11.9375 C 27.488281 -9.84375 31.195312 -8.796875 35.5625 -8.796875 Z M 35.5625 -8.796875 "/></g></g></g><g fill="#ffe7dc" fill-opacity="1"><g transform="translate(183.522659, 87.654145)"><g><path d="M 25.1875 0 L 6.1875 0 L 6.1875 -66.5 L 25.28125 -66.5 C 36.4375 -66.5 44.976562 -63.625 50.90625 -57.875 C 56.832031 -52.125 59.796875 -43.898438 59.796875 -33.203125 C 59.796875 -22.566406 56.832031 -14.375 50.90625 -8.625 C 44.976562 -2.875 36.40625 0 25.1875 0 Z M 17.25 -56.5625 L 17.25 -9.9375 L 25.09375 -9.9375 C 29.632812 -9.9375 33.675781 -10.617188 37.21875 -11.984375 C 40.757812 -13.347656 43.5625 -15.726562 45.625 -19.125 C 47.6875 -22.53125 48.71875 -27.222656 48.71875 -33.203125 C 48.71875 -38.785156 47.726562 -43.289062 45.75 -46.71875 C 43.78125 -50.144531 41.019531 -52.640625 37.46875 -54.203125 C 33.925781 -55.773438 29.800781 -56.5625 25.09375 -56.5625 Z M 17.25 -56.5625 "/></g></g></g><g fill="#ffe7dc" fill-opacity="1"><g transform="translate(245.398897, 87.654145)"><g><path d="M 31.71875 1.140625 C 25.625 1.140625 20.65625 0.109375 16.8125 -1.953125 C 12.976562 -4.023438 10.144531 -6.929688 8.3125 -10.671875 C 6.488281 -14.421875 5.578125 -18.765625 5.578125 -23.703125 L 5.578125 -66.5 L 16.640625 -66.5 L 16.640625 -23.703125 C 16.640625 -19.285156 17.769531 -15.679688 20.03125 -12.890625 C 22.300781 -10.109375 26.195312 -8.71875 31.71875 -8.71875 C 37.238281 -8.71875 41.117188 -10.109375 43.359375 -12.890625 C 45.597656 -15.679688 46.71875 -19.285156 46.71875 -23.703125 L 46.71875 -66.5 L 57.78125 -66.5 L 57.78125 -23.703125 C 57.78125 -18.765625 56.878906 -14.421875 55.078125 -10.671875 C 53.273438 -6.929688 50.457031 -4.023438 46.625 -1.953125 C 42.789062 0.109375 37.820312 1.140625 31.71875 1.140625 Z M 31.71875 1.140625 "/></g></g></g><g fill="#ffe7dc" fill-opacity="1"><g transform="translate(307.10083, 87.654145)"><g><path d="M 35.390625 1.140625 C 29.984375 1.140625 25.289062 0.210938 21.3125 -1.640625 C 17.332031 -3.503906 14.046875 -6.035156 11.453125 -9.234375 C 8.867188 -12.429688 6.9375 -16.109375 5.65625 -20.265625 C 4.382812 -24.421875 3.75 -28.765625 3.75 -33.296875 C 3.75 -37.828125 4.382812 -42.15625 5.65625 -46.28125 C 6.9375 -50.40625 8.867188 -54.066406 11.453125 -57.265625 C 14.046875 -60.460938 17.332031 -62.972656 21.3125 -64.796875 C 25.289062 -66.628906 29.984375 -67.546875 35.390625 -67.546875 C 40.734375 -67.546875 45.363281 -66.660156 49.28125 -64.890625 C 53.207031 -63.117188 56.347656 -60.648438 58.703125 -57.484375 C 61.054688 -54.316406 62.550781 -50.640625 63.1875 -46.453125 L 51.078125 -46.453125 C 50.378906 -50.054688 48.601562 -52.832031 45.75 -54.78125 C 42.90625 -56.726562 39.394531 -57.703125 35.21875 -57.703125 C 30.851562 -57.703125 27.175781 -56.65625 24.1875 -54.5625 C 21.195312 -52.46875 18.945312 -49.585938 17.4375 -45.921875 C 15.925781 -42.265625 15.171875 -38.054688 15.171875 -33.296875 C 15.171875 -28.523438 15.925781 -24.28125 17.4375 -20.5625 C 18.945312 -16.84375 21.195312 -13.9375 24.1875 -11.84375 C 27.175781 -9.757812 30.851562 -8.71875 35.21875 -8.71875 C 39.394531 -8.71875 42.90625 -9.75 45.75 -11.8125 C 48.601562 -13.875 50.378906 -16.96875 51.078125 -21.09375 L 63.1875 -21.09375 C 62.195312 -14.351562 59.304688 -8.960938 54.515625 -4.921875 C 49.722656 -0.878906 43.347656 1.140625 35.390625 1.140625 Z M 35.390625 1.140625 "/></g></g></g><g fill="#ffe7dc" fill-opacity="1"><g transform="translate(371.155799, 87.654145)"><g><path d="M 33.03125 0 L 21.96875 0 L 21.96875 -56.5625 L 1.046875 -56.5625 L 1.046875 -66.5 L 54.125 -66.5 L 54.125 -56.5625 L 33.03125 -56.5625 Z M 33.03125 0 "/></g></g></g><g fill="#ffe7dc" fill-opacity="1"><g transform="translate(424.491347, 87.654145)"><g><path d="M 17.25 0 L 6.1875 0 L 6.1875 -66.5 L 17.25 -66.5 Z M 17.25 0 "/></g></g></g><g fill="#ffe7dc" fill-opacity="1"><g transform="translate(446.365775, 87.654145)"><g><path d="M 36.609375 0 L 24.40625 0 L 0.609375 -66.5 L 12.109375 -66.5 L 30.5 -11.9375 L 48.890625 -66.5 L 60.40625 -66.5 Z M 36.609375 0 "/></g></g></g><g fill="#ffe7dc" fill-opacity="1"><g transform="translate(505.627523, 87.654145)"><g><path d="M 50.203125 0 L 6.1875 0 L 6.1875 -66.5 L 50.203125 -66.5 L 50.203125 -56.5625 L 17.25 -56.5625 L 17.25 -38.265625 L 46.546875 -38.265625 L 46.546875 -28.40625 L 17.25 -28.40625 L 17.25 -9.9375 L 50.203125 -9.9375 Z M 50.203125 0 "/></g></g></g></g></g></svg>