<svg xmlns="http://www.w3.org/2000/svg" xmlns:xlink="http://www.w3.org/1999/xlink" width="2000" zoomAndPan="magnify" viewBox="0 0 1500 1499.999933" height="2000" preserveAspectRatio="xMidYMid meet" version="1.0"><defs><g/><clipPath id="f268555685"><rect x="0" width="656" y="0" height="886"/></clipPath></defs><g transform="matrix(1, 0, 0, 1, 413, 392)"><g clip-path="url(#f268555685)"><g fill="#ff5c0e" fill-opacity="1"><g transform="translate(0.11283, 662.043826)"><g><path d="M 26.671875 0 L 24.890625 -646.1875 L 335.984375 -410.640625 L 647.078125 -646.1875 L 648.859375 0 Z M 26.671875 0 "/></g></g></g></g></g><g fill="#ffe7dc" fill-opacity="1"><g transform="translate(511.867669, 947.645706)"><g><path d="M 11.5625 0 L 2.84375 0 L 2.84375 -30.515625 L 11.59375 -30.515625 C 16.71875 -30.515625 20.640625 -29.191406 23.359375 -26.546875 C 26.078125 -23.910156 27.4375 -20.140625 27.4375 -15.234375 C 27.4375 -10.359375 26.078125 -6.597656 23.359375 -3.953125 C 20.640625 -1.316406 16.707031 0 11.5625 0 Z M 7.921875 -25.953125 L 7.921875 -4.5625 L 11.515625 -4.5625 C 13.597656 -4.5625 15.453125 -4.875 17.078125 -5.5 C 18.703125 -6.125 19.988281 -7.21875 20.9375 -8.78125 C 21.882812 -10.34375 22.359375 -12.492188 22.359375 -15.234375 C 22.359375 -17.796875 21.90625 -19.863281 21 -21.4375 C 20.09375 -23.007812 18.828125 -24.15625 17.203125 -24.875 C 15.578125 -25.59375 13.679688 -25.953125 11.515625 -25.953125 Z M 7.921875 -25.953125 "/></g></g></g><g fill="#ffe7dc" fill-opacity="1"><g transform="translate(539.224837, 947.645706)"><g><path d="M 5.640625 0 L 0.359375 0 L 11.28125 -30.515625 L 16.875 -30.515625 L 27.796875 0 L 22.515625 0 L 20.28125 -6.6875 L 7.921875 -6.6875 Z M 14.078125 -25.078125 L 9.40625 -11.125 L 18.765625 -11.125 Z M 14.078125 -25.078125 "/></g></g></g><g fill="#ffe7dc" fill-opacity="1"><g transform="translate(562.982266, 947.645706)"><g><path d="M 16.515625 0 L 11.203125 0 L 11.203125 -11.84375 L -0.046875 -30.515625 L 5.875 -30.515625 L 13.796875 -16.796875 L 21.796875 -30.515625 L 27.6875 -30.515625 L 16.515625 -11.84375 Z M 16.515625 0 "/></g></g></g><g fill="#ffe7dc" fill-opacity="1"><g transform="translate(511.867669, 904.558606)"><g><path d="M 7.921875 0 L 2.84375 0 L 2.84375 -30.515625 L 15.4375 -30.515625 C 17.351562 -30.515625 19.03125 -30.203125 20.46875 -29.578125 C 21.914062 -28.953125 23.046875 -27.984375 23.859375 -26.671875 C 24.671875 -25.367188 25.078125 -23.675781 25.078125 -21.59375 C 25.078125 -19.675781 24.675781 -18.035156 23.875 -16.671875 C 23.082031 -15.316406 21.957031 -14.269531 20.5 -13.53125 C 19.039062 -12.800781 17.351562 -12.4375 15.4375 -12.4375 L 7.921875 -12.4375 Z M 7.921875 -25.953125 L 7.921875 -16.875 L 14.765625 -16.875 C 16.492188 -16.875 17.8125 -17.265625 18.71875 -18.046875 C 19.625 -18.835938 20.078125 -19.96875 20.078125 -21.4375 C 20.078125 -22.90625 19.613281 -24.023438 18.6875 -24.796875 C 17.769531 -25.566406 16.460938 -25.953125 14.765625 -25.953125 Z M 7.921875 -25.953125 "/></g></g></g><g fill="#ffe7dc" fill-opacity="1"><g transform="translate(537.345054, 904.558606)"><g><path d="M 20.078125 -13.3125 L 25.71875 0 L 20.234375 0 L 15.203125 -12.4375 L 7.921875 -12.4375 L 7.921875 0 L 2.84375 0 L 2.84375 -30.515625 L 15.4375 -30.515625 C 17.351562 -30.515625 19.03125 -30.203125 20.46875 -29.578125 C 21.914062 -28.953125 23.046875 -27.984375 23.859375 -26.671875 C 24.671875 -25.367188 25.078125 -23.675781 25.078125 -21.59375 C 25.078125 -19.570312 24.632812 -17.859375 23.75 -16.453125 C 22.875 -15.054688 21.648438 -14.007812 20.078125 -13.3125 Z M 7.921875 -25.953125 L 7.921875 -16.875 L 14.765625 -16.875 C 16.492188 -16.875 17.8125 -17.265625 18.71875 -18.046875 C 19.625 -18.835938 20.078125 -19.96875 20.078125 -21.4375 C 20.078125 -22.90625 19.613281 -24.023438 18.6875 -24.796875 C 17.769531 -25.566406 16.460938 -25.953125 14.765625 -25.953125 Z M 7.921875 -25.953125 "/></g></g></g><g fill="#ffe7dc" fill-opacity="1"><g transform="translate(563.702351, 904.558606)"><g><path d="M 16.3125 0.515625 C 13.832031 0.515625 11.671875 0.0859375 9.828125 -0.765625 C 7.992188 -1.617188 6.476562 -2.773438 5.28125 -4.234375 C 4.082031 -5.703125 3.1875 -7.382812 2.59375 -9.28125 C 2.007812 -11.175781 1.71875 -13.175781 1.71875 -15.28125 C 1.71875 -17.382812 2.007812 -19.375 2.59375 -21.25 C 3.1875 -23.132812 4.082031 -24.8125 5.28125 -26.28125 C 6.476562 -27.75 7.992188 -28.898438 9.828125 -29.734375 C 11.671875 -30.578125 13.832031 -31 16.3125 -31 C 18.800781 -31 20.957031 -30.578125 22.78125 -29.734375 C 24.601562 -28.898438 26.117188 -27.75 27.328125 -26.28125 C 28.546875 -24.8125 29.445312 -23.132812 30.03125 -21.25 C 30.625 -19.375 30.921875 -17.382812 30.921875 -15.28125 C 30.921875 -13.175781 30.625 -11.175781 30.03125 -9.28125 C 29.445312 -7.382812 28.546875 -5.703125 27.328125 -4.234375 C 26.117188 -2.773438 24.601562 -1.617188 22.78125 -0.765625 C 20.957031 0.0859375 18.800781 0.515625 16.3125 0.515625 Z M 16.3125 -4.046875 C 18.34375 -4.046875 20.050781 -4.523438 21.4375 -5.484375 C 22.820312 -6.441406 23.875 -7.765625 24.59375 -9.453125 C 25.320312 -11.148438 25.6875 -13.09375 25.6875 -15.28125 C 25.6875 -17.46875 25.320312 -19.398438 24.59375 -21.078125 C 23.875 -22.753906 22.820312 -24.070312 21.4375 -25.03125 C 20.050781 -26 18.34375 -26.484375 16.3125 -26.484375 C 14.3125 -26.484375 12.613281 -26 11.21875 -25.03125 C 9.820312 -24.070312 8.757812 -22.753906 8.03125 -21.078125 C 7.3125 -19.398438 6.953125 -17.46875 6.953125 -15.28125 C 6.953125 -13.09375 7.3125 -11.148438 8.03125 -9.453125 C 8.757812 -7.765625 9.820312 -6.441406 11.21875 -5.484375 C 12.613281 -4.523438 14.3125 -4.046875 16.3125 -4.046875 Z M 16.3125 -4.046875 "/></g></g></g><g fill="#ffe7dc" fill-opacity="1"><g transform="translate(595.5791, 904.558606)"><g><path d="M 11.5625 0 L 2.84375 0 L 2.84375 -30.515625 L 11.59375 -30.515625 C 16.71875 -30.515625 20.640625 -29.191406 23.359375 -26.546875 C 26.078125 -23.910156 27.4375 -20.140625 27.4375 -15.234375 C 27.4375 -10.359375 26.078125 -6.597656 23.359375 -3.953125 C 20.640625 -1.316406 16.707031 0 11.5625 0 Z M 7.921875 -25.953125 L 7.921875 -4.5625 L 11.515625 -4.5625 C 13.597656 -4.5625 15.453125 -4.875 17.078125 -5.5 C 18.703125 -6.125 19.988281 -7.21875 20.9375 -8.78125 C 21.882812 -10.34375 22.359375 -12.492188 22.359375 -15.234375 C 22.359375 -17.796875 21.90625 -19.863281 21 -21.4375 C 20.09375 -23.007812 18.828125 -24.15625 17.203125 -24.875 C 15.578125 -25.59375 13.679688 -25.953125 11.515625 -25.953125 Z M 7.921875 -25.953125 "/></g></g></g><g fill="#ffe7dc" fill-opacity="1"><g transform="translate(623.976203, 904.558606)"><g><path d="M 14.5625 0.515625 C 11.757812 0.515625 9.476562 0.046875 7.71875 -0.890625 C 5.957031 -1.835938 4.65625 -3.171875 3.8125 -4.890625 C 2.976562 -6.617188 2.5625 -8.613281 2.5625 -10.875 L 2.5625 -30.515625 L 7.640625 -30.515625 L 7.640625 -10.875 C 7.640625 -8.851562 8.160156 -7.203125 9.203125 -5.921875 C 10.242188 -4.640625 12.03125 -4 14.5625 -4 C 17.09375 -4 18.867188 -4.640625 19.890625 -5.921875 C 20.921875 -7.203125 21.4375 -8.851562 21.4375 -10.875 L 21.4375 -30.515625 L 26.515625 -30.515625 L 26.515625 -10.875 C 26.515625 -8.613281 26.101562 -6.617188 25.28125 -4.890625 C 24.457031 -3.171875 23.164062 -1.835938 21.40625 -0.890625 C 19.644531 0.046875 17.363281 0.515625 14.5625 0.515625 Z M 14.5625 0.515625 "/></g></g></g><g fill="#ffe7dc" fill-opacity="1"><g transform="translate(652.293312, 904.558606)"><g><path d="M 16.234375 0.515625 C 13.753906 0.515625 11.601562 0.0859375 9.78125 -0.765625 C 7.957031 -1.617188 6.453125 -2.773438 5.265625 -4.234375 C 4.078125 -5.703125 3.1875 -7.390625 2.59375 -9.296875 C 2.007812 -11.203125 1.71875 -13.195312 1.71875 -15.28125 C 1.71875 -17.363281 2.007812 -19.347656 2.59375 -21.234375 C 3.1875 -23.128906 4.078125 -24.8125 5.265625 -26.28125 C 6.453125 -27.75 7.957031 -28.898438 9.78125 -29.734375 C 11.601562 -30.578125 13.753906 -31 16.234375 -31 C 18.691406 -31 20.816406 -30.59375 22.609375 -29.78125 C 24.410156 -28.96875 25.851562 -27.832031 26.9375 -26.375 C 28.019531 -24.925781 28.707031 -23.238281 29 -21.3125 L 23.4375 -21.3125 C 23.113281 -22.96875 22.300781 -24.242188 21 -25.140625 C 19.695312 -26.035156 18.082031 -26.484375 16.15625 -26.484375 C 14.15625 -26.484375 12.46875 -26 11.09375 -25.03125 C 9.726562 -24.070312 8.695312 -22.753906 8 -21.078125 C 7.300781 -19.398438 6.953125 -17.46875 6.953125 -15.28125 C 6.953125 -13.09375 7.300781 -11.144531 8 -9.4375 C 8.695312 -7.726562 9.726562 -6.394531 11.09375 -5.4375 C 12.46875 -4.476562 14.15625 -4 16.15625 -4 C 18.082031 -4 19.695312 -4.472656 21 -5.421875 C 22.300781 -6.367188 23.113281 -7.789062 23.4375 -9.6875 L 29 -9.6875 C 28.539062 -6.59375 27.210938 -4.117188 25.015625 -2.265625 C 22.816406 -0.410156 19.890625 0.515625 16.234375 0.515625 Z M 16.234375 0.515625 "/></g></g></g><g fill="#ffe7dc" fill-opacity="1"><g transform="translate(681.690309, 904.558606)"><g><path d="M 15.15625 0 L 10.078125 0 L 10.078125 -25.953125 L 0.484375 -25.953125 L 0.484375 -30.515625 L 24.84375 -30.515625 L 24.84375 -25.953125 L 15.15625 -25.953125 Z M 15.15625 0 "/></g></g></g><g fill="#ffe7dc" fill-opacity="1"><g transform="translate(706.167801, 904.558606)"><g><path d="M 7.921875 0 L 2.84375 0 L 2.84375 -30.515625 L 7.921875 -30.515625 Z M 7.921875 0 "/></g></g></g><g fill="#ffe7dc" fill-opacity="1"><g transform="translate(716.206717, 904.558606)"><g><path d="M 16.796875 0 L 11.203125 0 L 0.28125 -30.515625 L 5.5625 -30.515625 L 14 -5.484375 L 22.4375 -30.515625 L 27.71875 -30.515625 Z M 16.796875 0 "/></g></g></g><g fill="#ffe7dc" fill-opacity="1"><g transform="translate(743.403942, 904.558606)"><g><path d="M 23.046875 0 L 2.84375 0 L 2.84375 -30.515625 L 23.046875 -30.515625 L 23.046875 -25.953125 L 7.921875 -25.953125 L 7.921875 -17.5625 L 21.359375 -17.5625 L 21.359375 -13.046875 L 7.921875 -13.046875 L 7.921875 -4.5625 L 23.046875 -4.5625 Z M 23.046875 0 "/></g></g></g></svg>